inDegrees=no
num_controls=7
num_derivatives=13
num_iterations=92
num_multipliers=7
num_parameters=0
num_slacks=7
num_states=26
objective=0.479005
objective_accelerations=0.001470
objective_balance=0.000777
objective_effort=0.006417
objective_height=0.458925
objective_ligament=0.011416
solver_duration=1056.699773
status=Solve_Succeeded
success=true
DataType=double
version=3
OpenSimVersion=4.5
endheader
time	/jointset/ground_pelvis/pelvis_tilt/value	/jointset/ground_pelvis/pelvis_tx/value	/jointset/ground_pelvis/pelvis_ty/value	/jointset/hip_r/hip_flexion_r/value	/jointset/hip_r/hip_adduction_r/value	/jointset/hip_r/hip_rotation_r/value	/jointset/back/lumbar_extension/value	/jointset/patellofemoral_r/patellar_flexion_r/value	/jointset/knee_r/knee_flexion_r/value	/jointset/knee_r/knee_adduction_r/value	/jointset/knee_r/knee_rotation_r/value	/jointset/ankle_r/ankle_angle_r/value	/jointset/subtalar_r/subtalar_angle_r/value	/jointset/ground_pelvis/pelvis_tilt/speed	/jointset/ground_pelvis/pelvis_tx/speed	/jointset/ground_pelvis/pelvis_ty/speed	/jointset/hip_r/hip_flexion_r/speed	/jointset/hip_r/hip_adduction_r/speed	/jointset/hip_r/hip_rotation_r/speed	/jointset/back/lumbar_extension/speed	/jointset/patellofemoral_r/patellar_flexion_r/speed	/jointset/knee_r/knee_flexion_r/speed	/jointset/knee_r/knee_adduction_r/speed	/jointset/knee_r/knee_rotation_r/speed	/jointset/ankle_r/ankle_angle_r/speed	/jointset/subtalar_r/subtalar_angle_r/speed	/forceset/tau_hip_flexion_r	/forceset/tau_hip_adduction_r	/forceset/tau_hip_rotation_r	/forceset/tau_knee_flexion_r	/forceset/tau_ankle_angle_r	/forceset/tau_subtalar_angle_r	/forceset/tau_lumbar_extension	lambda_cid13_p0	lambda_cid14_p0	lambda_cid14_p1	lambda_cid14_p2	lambda_cid14_p3	lambda_cid14_p4	lambda_cid14_p5	/jointset/ground_pelvis/pelvis_tilt/accel	/jointset/ground_pelvis/pelvis_tx/accel	/jointset/ground_pelvis/pelvis_ty/accel	/jointset/hip_r/hip_flexion_r/accel	/jointset/hip_r/hip_adduction_r/accel	/jointset/hip_r/hip_rotation_r/accel	/jointset/back/lumbar_extension/accel	/jointset/patellofemoral_r/patellar_flexion_r/accel	/jointset/knee_r/knee_flexion_r/accel	/jointset/knee_r/knee_adduction_r/accel	/jointset/knee_r/knee_rotation_r/accel	/jointset/ankle_r/ankle_angle_r/accel	/jointset/subtalar_r/subtalar_angle_r/accel	gamma_cid13_p0	gamma_cid14_p0	gamma_cid14_p1	gamma_cid14_p2	gamma_cid14_p3	gamma_cid14_p4	gamma_cid14_p5
1	0.04885289763534269	0.1501257572345412	0.937920214841945	0.1320499696579149	-0.08650387766979534	-0.01178142593509273	-0.3549262142440178	0.2593029057711937	0.2593029057711411	-0.1453473201984821	-0.1627905575110643	0.1443624275669232	0.2641407889912872	0.06210415659257656	0.006979040776346659	0.005682257135872968	-0.08704996063941443	0.003880530753611431	-0.006764366790545932	0.0291410778047491	-0.01947541578251896	-0.01947541578251878	-0.008970092340145078	-0.001236210457661791	0.005864086638909217	0.00821431991501837	0.006265090475421291	0.0406692662321548	0.03319615016677513	-0.1167100764333661	-0.02837565723795601	-0.03581133026366535	0.07997954939954384	-28.25302205550895	-59.45106233728048	-28.11080811118501	7.357665632317413	7.536350444341378	-664.2900654767459	34.2125490650257	-0.02075077134390422	-0.06810946842227331	0.01139434817248803	0.0125796132855286	0.02827339023335721	0.05918332709932453	0.3197093685047583	-0.1708706065371885	-0.1708706065371887	-0.0304340674046013	-0.0515855481228434	-0.1826719611844575	-0.05176994167787723	1.767257799619699e-10	1.950327259824024e-10	3.800915507178987e-10	6.121202057672369e-10	-8.723831245362697e-11	-7.542485262685456e-10	-6.819801153859537e-11
1.01	0.04947285620140175	0.150192136167294	0.9379775966099558	0.1311802155949385	-0.08646368429871081	-0.01184603207081371	-0.3546188163968794	0.2590997352228325	0.2590997352228276	-0.1454384845675421	-0.1628055510243262	0.1444119808413548	0.2642203293234879	0.06188574700261875	0.00629641759384712	0.005793907614029748	-0.08689779756456234	0.004157706304805793	-0.006156619036810516	0.03233678515500332	-0.02115746363627307	-0.02115746363627326	-0.00926188843443472	-0.001762036176987165	0.004046581192108507	0.007693084752670235	0.006777035791103932	0.04064268977791078	0.03326702353930731	-0.1170514170017131	-0.0280773029565098	-0.03572884847337415	0.07961133221205949	-28.25128364907334	-59.3525052222887	-28.08447459834666	7.38401653441154	7.52049986733009	-664.2679703235076	34.24484441304212	-0.02265744299501862	-0.06838798377044854	0.01102190488665066	0.01699285449493228	0.02737419135640761	0.06160679639849891	0.3192454481352757	-0.1666873723740522	-0.1666873723740883	-0.02841832105644728	-0.0530125820742826	-0.181287869777427	-0.05239943590442309	1.780690756451461e-10	1.664119794785354e-10	3.700988849777549e-10	6.550177900581123e-10	-6.769314849648769e-11	-8.238782201047662e-10	-7.26433006566975e-11
1.02	0.05009057639352541	0.1502516790201005	0.938036089184198	0.1303120748026922	-0.08642073226135336	-0.01190455346962033	-0.3542795126702686	0.2588797810964172	0.25887978109646	-0.1455325400856635	-0.1628257890944294	0.1444433594546479	0.2642946374775873	0.06165648180573179	0.005611824787093963	0.005904418382154617	-0.08672730649331103	0.004432264007754603	-0.005547419407560792	0.03552225369923697	-0.02283213139320883	-0.02283213139320939	-0.00954832215333864	-0.002285121825788726	0.002229154411324792	0.007167884294676789	0.007288981106786983	0.04061611332367247	0.03333789691183687	-0.1173927575700633	-0.02777894867506566	-0.03564636668307627	0.07924311502457686	-28.24942421500217	-59.25533982012912	-28.05797292643096	7.40987020685908	7.512489840801585	-664.2654129048932	34.2813863767601	-0.02292189272971503	-0.06850339327301551	0.0111664061661073	0.0162452125653777	0.02774982058424661	0.05947370220218865	0.3176616073006576	-0.1693945871735149	-0.1693945871735146	-0.02936159232745488	-0.05103753401807645	-0.1826562279810779	-0.05256300080694914	1.851864305059735e-10	1.95841927886356e-10	4.283887104495466e-10	6.602319078085489e-10	-1.010797014789412e-10	-8.238427421504247e-10	-2.449133860025356e-12
1.03	0.05070595362014383	0.150304365456881	0.9380956811766933	0.1294457286148672	-0.08637504923396346	-0.0119569752927993	-0.353908409961154	0.258643120453471	0.2586431204534928	-0.1456294304573934	-0.1628512434318903	0.1444565655460413	0.2643636726062814	0.06141739007366621	0.004925060048191892	0.006013766805274229	-0.08653879264453451	0.004703751977010423	-0.004936723172132259	0.03869628605451812	-0.02449828377827352	-0.024498283778274	-0.009828601422807877	-0.002805138561705815	0.0004122685813974004	0.006638384816589785	0.007818163510550227	0.04059587658394354	0.03341356232691921	-0.1177463332742313	-0.02744000355424417	-0.03556866946718956	0.07885502627839062	-28.2474413124069	-59.14436823772864	-28.03365619218737	7.438955646006673	7.498784252149587	-664.2410929037973	34.30808233352186	-0.02463877649429202	-0.068823419572212	0.01078689902992443	0.02062527881389279	0.02675998719915726	0.06190099359266222	0.3169737393036315	-0.1649685899968073	-0.1649685899967747	-0.02718836491363293	-0.05239257743547891	-0.1811740229253184	-0.05325676348526039	1.923627043380016e-10	2.25864230323888e-10	4.873752960357461e-10	6.650615003902054e-10	-1.350063740220031e-10	-8.230963950961789e-10	6.850666003781838e-11
1.04	0.05131889273683061	0.1503501721651977	0.9381563602211487	0.1285813617270855	-0.0863266689864581	-0.01200328347174868	-0.3535056269905544	0.2583898496815082	0.2583898496815096	-0.1457290890759446	-0.1628818797035241	0.1444516089266496	0.2644273900717599	0.06116885981963101	0.004235879094366866	0.006121828774186776	-0.0863314464845498	0.004971708030379995	-0.00432469056152415	0.04185830599626919	-0.02615415719629318	-0.02615415719629357	-0.01010197151855834	-0.003321508659901188	-0.001403387745600983	0.006104351651475769	0.008347345914312307	0.04057563984421957	0.03348922774198933	-0.1180999089784055	-0.02710105843342507	-0.03549097225129716	0.07846693753220506	-28.24533484720126	-59.03477364526825	-28.00917256239375	7.467548444622149	7.492928619999621	-664.2360936392377	34.33899416716641	-0.02480959712362407	-0.06898663625762305	0.01090911532469573	0.02001167480702062	0.027043437406998	0.05974097723810537	0.3152591245946527	-0.1673387937645038	-0.1673387937645037	-0.02797975758370107	-0.05030820647372952	-0.1824103273952933	-0.05346973821235879	1.886831815811401e-10	2.015564332338891e-10	4.307486023220149e-10	7.341140932857495e-10	-1.03644227397277e-10	-8.221844739208658e-10	-4.01869098552579e-11
1.05	0.05192930377766534	0.150389073737228	0.9382181134590509	0.1277191606778796	-0.08627562647031049	-0.01204346801756896	-0.3530712918887899	0.2581200740001897	0.2581200740001572	-0.1458314486350312	-0.1629176582659641	0.1444285023722313	0.264485745505482	0.06091203775593856	0.003543895987679466	0.00622857654236228	-0.08610548018507917	0.005236232319107362	-0.003712349260581616	0.04500608511165553	-0.02779881725288897	-0.02779881725288936	-0.01036895864189865	-0.003833245600660643	-0.00321759626036504	0.005566098031187344	0.008895549718328928	0.04056062277976136	0.03357005280781228	-0.1184676178464688	-0.0267204569469304	-0.03541687161770551	0.07805719771624967	-28.24310234196683	-58.91090849649802	-27.98637211069716	7.499402093061907	7.481598210955045	-664.2089329830775	34.36110443780519	-0.02631504595586833	-0.06938506022879405	0.01052110374069615	0.0243816260025076	0.02607264086884158	0.06196123305707577	0.3141429182980216	-0.162705376290198	-0.1627053762901775	-0.02591082707750096	-0.0514625784389595	-0.1808770548047687	-0.05409858176171599	1.846644151808758e-10	1.755508205336552e-10	3.705089936301616e-10	8.051736549411022e-10	-7.024180517355779e-11	-8.212673785542693e-10	-1.544945223667994e-10
1.06	0.05253710729086931	0.1504210392957206	0.9382809268738701	0.1268593177953651	-0.08622195556802073	-0.01207753304507346	-0.3526055578732143	0.2578339165653671	0.2578339165653016	-0.1459364485928191	-0.1629585254259274	0.1443872635444073	0.2645386993214366	0.06064735429369654	0.002848676386826369	0.006333864157597221	-0.08585981314618737	0.005497385258361511	-0.003100786898248531	0.04813808875853604	-0.02943050789680857	-0.02943050789680897	-0.01063005125997348	-0.004339228163896409	-0.005029842426642431	0.005024028097914072	0.009443753522344471	0.04054560571530855	0.03365087787361676	-0.1188353267145398	-0.02633985546043833	-0.03534277098410758	0.07764745790029523	-28.24074360640958	-58.78840142771944	-27.96340519804376	7.530767448885265	7.478123921298699	-664.2008167923606	34.38738829198334	-0.02638187683352329	-0.06963393509077744	0.0106170847365843	0.02395182269126052	0.02636916751235677	0.05958518951621565	0.3121040308935006	-0.1647449112292632	-0.164744911229263	-0.02680085653060757	-0.04915733096898831	-0.1820178576979751	-0.05423300080933266	1.909722028211757e-10	1.746513584197168e-10	4.211262802291048e-10	8.145589969923053e-10	-8.301527317794046e-11	-8.707597555114393e-10	-8.54966835262421e-11
1.07	0.05314223008368932	0.1504460354917539	0.9383447860857386	0.1260020259146585	-0.08616568994124206	-0.0121054907786653	-0.3521085906767671	0.2575315074434975	0.2575315074434951	-0.1460440311488832	-0.1630044192702037	0.1443279120687126	0.264586213689935	0.06037624600478898	0.002149911702064909	0.006437726181877276	-0.08559534455940282	0.005755158864100345	-0.002491286249801809	0.05125210582390908	-0.03104886982356392	-0.03104886982356391	-0.01088554679898596	-0.004838161767311204	-0.006840038452352155	0.004478251279606269	0.01000979464456757	0.04053608168759147	0.03373671677859321	-0.1192164904502597	-0.0259182572972878	-0.03527261542738856	0.07721715638027789	-28.23825608118172	-58.65190880446462	-27.94226963771027	7.565356648798184	7.469140038054186	-664.171312478824	34.40468520138378	-0.02761899142572078	-0.07009542273211261	0.01023277081960436	0.02817718336708649	0.02539441877487342	0.06155366688704218	0.31056383834193	-0.1600148749988006	-0.1600148749987194	-0.02478680531061871	-0.05005440697863198	-0.1804583131034077	-0.05483899977116467	1.978292752508674e-10	1.750873298476028e-10	4.776402101945804e-10	8.206637954475426e-10	-9.824490555615864e-11	-9.229334873794481e-10	-6.748554720146448e-12
